<svg id="svg" version="1.1" xmlns="http://www.w3.org/2000/svg" viewBox="0 0 826 532" style="display: block;"><path d="M0 0 C272.58 0 545.16 0 826 0 C826 175.56 826 351.12 826 532 C553.42 532 280.84 532 0 532 C0 356.44 0 180.88 0 0 Z " transform="translate(0,0)" style="fill: #000000;"/><path d="M0 0 C0.66 0 1.32 0 2 0 C2.3496582 0.86423584 2.69931641 1.72847168 3.05957031 2.61889648 C14.31624199 30.435811 25.64718899 58.22220168 37 86 C37.39805847 86.97398743 37.79611694 87.94797485 38.20623779 88.95147705 C46.45742777 109.13981675 54.71935652 129.323723 63 149.5 C75.84689504 180.80342872 88.64879637 212.12502605 101.41033936 243.46334839 C109.85692348 264.20474681 118.3290432 284.93559294 126.81445312 305.66113281 C130.1681464 313.85291016 133.51915199 322.04578713 136.87042236 330.23855591 C138.74948456 334.83224211 140.62863279 339.42589312 142.5078125 344.01953125 C142.87945526 344.92801315 143.25109802 345.83649506 143.63400269 346.77250671 C145.86349797 352.22236054 148.09340061 357.67204749 150.32363892 363.12159729 C152.17423205 367.6435078 154.02465895 372.16548633 155.875 376.6875 C156.24236267 377.58528168 156.60972534 378.48306335 156.98822021 379.40805054 C163.46817984 395.24529569 169.93414716 411.08823263 176.39767456 426.93218994 C181.7322013 440.00768857 187.07837003 453.07830318 192.44329834 466.14135742 C194.98520602 472.33157131 197.52401643 478.52305601 200.06268311 484.71459961 C201.02324401 487.0566744 201.98451047 489.39845888 202.94580078 491.74023438 C204.50908095 495.54968879 206.06856399 499.36067756 207.62527466 503.17282104 C208.20287609 504.58570068 208.78168965 505.99808547 209.36178589 507.40994263 C210.15069969 509.33057603 210.93528604 511.25291964 211.71875 513.17578125 C212.38293945 514.79867065 212.38293945 514.79867065 213.06054688 516.4543457 C214 519 214 519 214 521 C178.03 521 142.06 521 105 521 C97.36593436 502.79568962 89.76616657 484.62042536 82.47872925 466.28128052 C80.09996169 460.29577817 77.71140988 454.31417783 75.32421875 448.33203125 C74.85603226 447.15815353 74.38784576 445.98427582 73.9054718 444.77482605 C70.28093459 435.69114315 66.62301309 426.62158587 62.9375 417.5625 C55.45514567 399.16390167 48.04188168 380.73755957 40.625 362.3125 C32.42145401 341.93326982 24.21138529 321.55690178 15.9536438 301.19955444 C9.84351708 286.13217588 3.81453667 271.0328025 -2.21182251 255.9317627 C-8.51520319 240.14293854 -14.90477422 224.39163635 -21.3626709 208.66543579 C-27.53315664 193.63676212 -33.60616801 178.57116738 -39.61230469 163.47607422 C-39.91880951 162.70684631 -40.22531433 161.93761841 -40.54110718 161.14508057 C-41.13981104 159.64072571 -41.73671645 158.13565368 -42.33169556 156.62982178 C-43.84253498 152.82272308 -45.40248175 149.0466094 -47.04541016 145.29443359 C-47.37612015 144.52826218 -47.70683014 143.76209076 -48.04756165 142.97270203 C-48.67613612 141.52264577 -49.31664867 140.07768112 -49.97135925 138.63923645 C-52.58162143 132.57909996 -51.75769056 128.86934528 -49.51635742 122.93945312 C-48.88566174 121.38416257 -48.24829502 119.83156615 -47.60546875 118.28125 C-47.2625882 117.44012161 -46.91970764 116.59899323 -46.56643677 115.7323761 C-45.82977391 113.92729454 -45.09030393 112.12335651 -44.34829712 110.32046509 C-43.16899627 107.45504028 -41.99696626 104.58673808 -40.8269043 101.7175293 C-39.26133923 97.87903602 -37.6935252 94.04147502 -36.12402344 90.20458984 C-33.48792415 83.75334388 -30.89290278 77.28623439 -28.3125 70.8125 C-27.38675362 68.49347566 -26.46096974 66.1744663 -25.53515625 63.85546875 C-25.28328049 63.22423096 -25.03140472 62.59299316 -24.77189636 61.94262695 C-21.97556044 54.9354396 -19.17330162 47.93062197 -16.37109375 40.92578125 C-16.12114969 40.30097933 -15.87120564 39.67617741 -15.61368752 39.03244209 C-14.33814262 35.8439114 -13.06255826 32.65539649 -11.78695679 29.46688843 C-9.32126061 23.30354735 -6.85596878 17.14004454 -4.390625 10.9765625 C-3.53678553 8.84195897 -2.68294455 6.70735603 -1.82910156 4.57275391 C-1.47446838 3.68617096 -1.11983521 2.79958801 -0.75445557 1.88613892 C-0.50548523 1.26371307 -0.25651489 0.64128723 0 0 Z " transform="translate(268,0)" style="fill: #FFFFFF;"/><path d="M0 0 C7.38545417 -0.14432371 14.54887946 0.18882879 21.875 1.125 C23.40108887 1.31968872 23.40108887 1.31968872 24.95800781 1.51831055 C68.92970594 7.47737099 111.07569935 21.1822767 145.375 50.0625 C146.195448 50.74965088 146.195448 50.74965088 147.0324707 51.45068359 C155.30473864 58.60190238 161.27243368 66.36667972 166.1875 76.125 C166.7043335 77.14126465 167.22116699 78.1575293 167.75366211 79.20458984 C182.11989264 107.99187513 184.07075381 141.5158564 174.17993164 172.14648438 C162.80526615 204.91077904 138.40118433 227.87310362 107.96459961 243.11499023 C74.28200298 259.39550224 36.86638065 263.64565764 0 266 C0.33 265.01 0.66 264.02 1 263 C3.30078125 262.26171875 3.30078125 262.26171875 6.3125 261.6875 C24.30937014 257.52945536 38.77458653 245.07803558 48.52368164 229.6640625 C75.1398412 185.89005559 77.00939865 124.53879767 65.3125 75.6875 C59.05867338 51.30881061 47.5984425 27.35102904 26 13 C17.80060632 8.23240553 9.2788256 4.14126745 0 2 C0 1.34 0 0.68 0 0 Z " transform="translate(553,0)" style="fill: #FFFFFF;"/><path d="M0 0 C0 0.66 0 1.32 0 2 C-0.99966797 2.31130859 -0.99966797 2.31130859 -2.01953125 2.62890625 C-19.22337252 8.37956088 -31.15751272 20.01886474 -41 35 C-42.02480469 36.55847656 -42.02480469 36.55847656 -43.0703125 38.1484375 C-57.26674756 60.4580403 -66.2495708 85.18366966 -74.33984375 110.2109375 C-78.38774308 122.71230883 -82.51056514 134.55575374 -89 146 C-89.37737305 146.68707031 -89.75474609 147.37414062 -90.14355469 148.08203125 C-95.86917795 158.49225536 -102.2588041 167.98571618 -110 177 C-110.50402344 177.58910156 -111.00804687 178.17820312 -111.52734375 178.78515625 C-131.44781954 201.78560585 -157.47931737 217.19551147 -188 221 C-190.22204724 221.08167927 -192.44613415 221.11792845 -194.66967773 221.11352539 C-195.95047714 221.11344986 -197.23127655 221.11337433 -198.55088806 221.11329651 C-199.92845703 221.10819145 -201.30602559 221.10297548 -202.68359375 221.09765625 C-204.1084844 221.0957886 -205.53337569 221.09436634 -206.95826721 221.09336853 C-210.6884034 221.08957066 -214.41849996 221.07976402 -218.14862061 221.06866455 C-221.96300725 221.05839141 -225.77740036 221.05385832 -229.59179688 221.04882812 C-237.06121798 221.03813901 -244.53059836 221.02056466 -252 221 C-252 217.04 -252 213.08 -252 209 C-250.411875 208.814375 -248.82375 208.62875 -247.1875 208.4375 C-233.03563777 205.80332795 -224.47127841 195.01824041 -216.5 183.875 C-208.14147085 171.6578497 -201.30975224 158.36866053 -195 145 C-194.62794434 144.21431641 -194.25588867 143.42863281 -193.87255859 142.61914062 C-188.02957957 130.12104984 -183.31387296 117.3773776 -178.9375 104.3125 C-170.52441413 79.23647741 -160.24384528 56.31319931 -143 36 C-142.34257812 35.22293701 -142.34257812 35.22293701 -141.671875 34.43017578 C-136.57425743 28.45544554 -136.57425743 28.45544554 -134 26 C-133.34 26 -132.68 26 -132 26 C-132 25.34 -132 24.68 -132 24 C-95.11300822 -9.24944559 -46.53887382 -13.47177926 0 0 Z " transform="translate(252,311)" style="fill: #C01E09;"/><path d="M0 0 C0.70338501 0.00149048 1.40677002 0.00298096 2.13146973 0.0045166 C12.43069989 0.04375288 22.22350052 0.47441877 32.1875 3.3125 C33.18136719 3.57933594 34.17523437 3.84617187 35.19921875 4.12109375 C68.44089185 14.1069101 93.87862568 38.47595027 110.8125 68.1875 C111.14838135 68.77426514 111.4842627 69.36103027 111.83032227 69.96557617 C118.02655156 81.12412155 122.89150478 92.63453662 126.84371948 104.74679565 C147.0034175 167.99287921 147.0034175 167.99287921 191.48828125 214.2578125 C195.32100362 215.75540301 198.12617535 215.7722726 202.1875 215.3125 C202.1875 219.6025 202.1875 223.8925 202.1875 228.3125 C194.39732235 228.38090567 186.60731575 228.435673 178.81691837 228.46793652 C175.19757282 228.4834394 171.57844742 228.50438703 167.95922852 228.53881836 C136.96174803 228.82566842 136.96174803 228.82566842 123.1875 225.3125 C122.29409912 225.09327881 121.40069824 224.87405762 120.48022461 224.64819336 C118.32564845 224.06994895 116.23230232 223.41771985 114.125 222.6875 C113.38805908 222.43516602 112.65111816 222.18283203 111.8918457 221.92285156 C76.05727303 209.02869149 50.42307556 176.82782425 34.26147461 143.54858398 C29.44905265 133.1598439 26.09100018 122.23155422 22.5328064 111.36993408 C13.89574113 85.02862507 4.28408197 58.48871159 -12.8125 36.3125 C-13.43825928 35.49362305 -13.43825928 35.49362305 -14.07666016 34.65820312 C-23.56962457 22.37608689 -34.32920516 12.97218787 -49.8125 9.3125 C-49.8125 8.6525 -49.8125 7.9925 -49.8125 7.3125 C-46.58555509 6.51159891 -43.35557611 5.72361421 -40.125 4.9375 C-38.78598633 4.60492188 -38.78598633 4.60492188 -37.41992188 4.265625 C-24.93426661 1.24418529 -12.83234933 -0.06739918 0 0 Z " transform="translate(623.8125,303.6875)" style="fill: #FFFFFF;"/><path d="M0 0 C35.64 0 71.28 0 108 0 C108 87.45 108 174.9 108 265 C107.34 265 106.68 265 106 265 C105.75056641 264.35603271 105.50113281 263.71206543 105.24414062 263.04858398 C99.39837641 247.98944407 93.39841182 233.00054672 87.25 218.0625 C86.9113089 217.2396048 86.5726178 216.41670959 86.22366333 215.56887817 C85.71185013 214.32544144 85.71185013 214.32544144 85.18969727 213.05688477 C84.49752302 211.3751774 83.80538442 209.69345537 83.11328125 208.01171875 C82.76999283 207.17759964 82.42670441 206.34348053 82.07301331 205.48408508 C78.49879802 196.79281678 74.96412234 188.08566813 71.4375 179.375 C70.97315048 178.22837891 70.97315048 178.22837891 70.49942017 177.05859375 C68.63471658 172.45379518 66.77105807 167.84857427 64.90771484 163.2432251 C62.25282773 156.68223356 59.59565299 150.12216898 56.9375 143.5625 C56.48922348 142.45613693 56.48922348 142.45613693 56.03189087 141.3274231 C50.5557506 127.81439938 45.05464485 114.31158979 39.5506897 100.80987549 C30.57665692 78.79557439 21.61511918 56.77638268 12.71897888 34.73046875 C10.98727614 30.43995171 9.2500164 26.15177233 7.50552368 21.86643982 C6.31247886 18.9332933 5.1255244 15.99768282 3.9375 13.0625 C3.52532227 12.05533936 3.11314453 11.04817871 2.68847656 10.01049805 C2.32592773 9.11113525 1.96337891 8.21177246 1.58984375 7.28515625 C1.27909912 6.52082275 0.96835449 5.75648926 0.64819336 4.96899414 C0 3 0 3 0 0 Z " transform="translate(374,0)" style="fill: #FFFFFF;"/><path d="M0 0 C0 3.63 0 7.26 0 11 C-14.52 11 -29.04 11 -44 11 C-44 10.67 -44 10.34 -44 10 C-42.83726562 9.84144531 -41.67453125 9.68289063 -40.4765625 9.51953125 C-27.81687153 7.70605484 -15.68309341 4.90092022 -3.55078125 0.84765625 C-1 0 -1 0 0 0 Z " transform="translate(826,521)" style="fill: #000000;"/><path d="M0 0 C5.16833985 0.60409167 9.91525116 1.79602316 14.875 3.375 C23.47373513 6.02216492 32.11861047 7.63277733 41 9 C41 9.33 41 9.66 41 10 C27.47 10 13.94 10 0 10 C0 6.7 0 3.4 0 0 Z " transform="translate(0,522)" style="fill: #000000;"/></svg>